<svg xmlns="http://www.w3.org/2000/svg" enable-background="new 0 0 50 50" viewBox="0 0 50 50" id="GuitarPlayer">
  <path d="M34.0604 9.5701c.1073.1253.2957.1402.4211.033.1254-.1071.1401-.2955.033-.4211l-.1328-.1554c-.1072-.1254-.2955-.1401-.421-.033-.1255.1071-.1402.2955-.0331.421L34.0604 9.5701zM33.14 10.3565c.1071.1253.2955.1402.421.0331.1253-.1072.1401-.2956.033-.421l-.1329-.1555C33.354 9.6877 33.1656 9.673 33.0401 9.78c-.1254.1072-.1402.2957-.033.421L33.14 10.3565zM32.2193 11.1429c.1072.1254.2957.1403.4211.0331.1252-.107.1401-.2956.033-.421l-.1329-.1555c-.1071-.1255-.2955-.1403-.421-.0331s-.1401.2957-.033.4211L32.2193 11.1429zM37.5597 12.746c-.107-.1253-.2955-.1402-.4208-.033-.1255.107-.1403.2955-.0331.421l.1329.1554c.1071.1255.2955.1402.421.0331.1252-.1071.1401-.2955.033-.421L37.5597 12.746zM36.6392 13.5326c-.1071-.1254-.2956-.1402-.421-.0331-.1252.1072-.1402.2957-.033.4211l.1328.1555c.1071.1253.2957.1401.421.033.1254-.1071.1402-.2957.0331-.421L36.6392 13.5326zM35.7187 14.3191c-.1071-.1254-.2957-.1402-.4211-.0331-.1253.1072-.1401.2958-.033.4211l.1329.1555c.1071.1253.2957.1401.4209.033.1254-.107.1402-.2956.0331-.421L35.7187 14.3191z" fill="#1a535c" class="color000000 svgShape"></path>
  <path d="M35.7625,8.9928c-1.0729,1.4251-2.4499,2.5954-4.0057,3.4225c0.1234,0.1445,0.2385,0.2791,0.3447,0.4035
		l-6.9249,5.4619c-1.0061-1.1297-2.7357-1.2538-3.8912-0.2666c-1.0002,0.8545-2.3516,2.0541-5.1599,2.8231
		c-1.3467,0.3705-2.4968,1.1828-3.0464,2.4375c-0.9272,2.1248,0.4926,4.7236,1.5917,6.0158c2.7415,3.3015,6.7191,3.7177,8.43-0.1989
		c1.1214-2.5774,2.6692-3.8041,3.6692-4.6587c1.155-0.9868,1.3026-2.7133,0.3451-3.8834l6.476-5.9879l0.0736,0.0862l0.2711,0.3174
		c1.0646-1.4146,2.4399-2.5904,4.0057-3.4226C37.478,11.0007,36.1118,9.4017,35.7625,8.9928z M19.2639,28.5789
		c-0.1343,0.1148-0.3422,0.1013-0.4595-0.0361l-2.7652-3.2363c-0.1174-0.1373-0.0983-0.3447,0.0361-0.4595
		c0.1374-0.1174,0.3422-0.1013,0.4595,0.0361l2.7654,3.2362C19.4173,28.2566,19.4012,28.4616,19.2639,28.5789z M23.2545,25.04
		c-1.0092,0.8622-2.5261,0.7432-3.3884-0.2659c-0.8648-1.0121-0.7457-2.5291,0.2635-3.3914
		c1.0092-0.8622,2.5291-0.7455,3.3939,0.2665C24.3857,22.6583,24.2638,24.1779,23.2545,25.04z" fill="#1a535c" class="color000000 svgShape"></path>
  <path d="M20.4773 21.7895c-.7883.6735-.8813 1.8583-.2079 2.6465.6736.7883 1.8583.8812 2.6465.2077.7882-.6733.8812-1.8582.2078-2.6464C22.4502 21.2092 21.2655 21.1163 20.4773 21.7895zM22.6277 24.3065c-.6031.5152-1.5055.4444-2.0208-.1587-.5153-.603-.447-1.5085.1561-2.0238.6031-.5153 1.511-.444 2.0264.1591C23.3047 22.8862 23.2309 23.7911 22.6277 24.3065zM27.42 25.1901c-1 .8615-2.3868 1.9679-3.4 4.3-1.0029 2.2794-3.0589 3.7894-5.52 3.35v13.66c0 1.38 1.12 2.5 2.5 2.5s2.5-1.12 2.5-2.5v-15.94h3v15.94c0 1.38 1.12 2.5 2.5 2.5s2.5-1.12 2.5-2.5v-28.64l-3.1 2.87C29.08 22.2301 28.72 24.0801 27.42 25.1901zM18.5 18.8101c.9202-.4992 1.3715-.9075 2.14-1.56.6801-.58 1.55-.9 2.45-.9.76 0 1.49.22 2.11.64l5.46-4.31-.47-.56 1.0699-.57c-.08-.1-.1299-.21-.17-.33l-2.93 1.34h-6.32l-5.86-2.67v-6.39c0-1.38-1.12-2.5-2.5-2.5s-2.5 1.12-2.5 2.5v8c0 .98.57 1.87 1.46 2.27l6.06 2.76V18.8101zM36.52 1.0001c-1.38 0-2.5 1.12-2.5 2.5v4.43c.04-.01.09-.01.13-.01.34 0 .65.13.89.37l.67-.89 3.31 3.87v-7.77C39.02 2.1201 37.9 1.0001 36.52 1.0001z" fill="#1a535c" class="color000000 svgShape"></path>
  <circle cx="24.998" cy="6.06" r="4.5" fill="#1a535c" class="color000000 svgShape"></circle>
</svg>
