<svg xmlns="http://www.w3.org/2000/svg" xml:space="preserve" enable-background="new 0 0 512 512" viewBox="0 0 512 512" id="guitar">
  <g id="_x33_8_x2C__guitar_x2C__music_x2C__party_x2C__sound_x2C__musical_instrument_x2C__birthday_and_party" fill="#1a535c" class="color000000 svgShape">
    <g fill="#1a535c" class="color000000 svgShape">
      <path d="M71.001 190.999c16.542 0 30-13.458 30-30v-40h60c7.431 0 12.262-7.836 8.944-14.472l-20-40c-1.694-3.389-5.156-5.528-8.944-5.528h-50c-5.522 0-10 4.478-10 10 0 21.725 0 40.274 0 61.72-3.13-1.11-6.494-1.72-10-1.72-16.542 0-30 13.458-30 30S54.459 190.999 71.001 190.999zM101.001 80.999h33.819l10 20h-43.819V80.999zM458.575 361.298l-80 20c-4.451 1.112-7.574 5.112-7.574 9.701 0 21.725 0 40.274 0 61.72-3.13-1.11-6.494-1.72-10-1.72-16.542 0-30 13.458-30 30s13.458 30 30 30 30-13.458 30-30v-42.192l60-15v18.913c-3.13-1.11-6.494-1.72-10-1.72-16.542 0-30 13.458-30 30s13.458 30 30 30 30-13.458 30-30c0-32.019 0-68.558 0-100C471.001 364.492 464.88 359.723 458.575 361.298zM391.001 398.806l60-15v19.385l-60 15V398.806zM508.072 53.428l-49.5-49.5c-3.906-3.904-10.236-3.904-14.143 0l-13.179 13.179-3.179-3.179c-3.906-3.904-10.236-3.904-14.143 0-3.905 3.905-3.905 10.237 0 14.143l3.179 3.179-15.857 15.857-3.179-3.179c-3.906-3.904-10.236-3.904-14.143 0-3.905 3.905-3.905 10.237 0 14.143l3.179 3.179L359.58 88.777c-3.905 3.905-3.905 10.235-.001 14.141-16.215 16.216-54.928 54.929-91.85 91.851-1.816-4.019-3.208-7.995-4.1-11.804-5.376-23.013-16.605-42.884-31.762-58.042-11.861-11.875-31.977-7.706-38.191 7.833l-5.889 14.728c-15.478 38.676-50.772 66.849-92.112 73.523-57.178 9.244-95.543 55.768-94.661 116.311.437 30.016 10.589 61.313 28.712 88.909L3.192 459.391c-3.184 3.979-2.865 9.715.737 13.318l35.36 35.36c3.603 3.603 9.339 3.92 13.318.737l33.165-26.533c27.596 18.123 58.893 28.275 88.909 28.712 38.985.565 73.749-15.335 95.403-44.383.668 1.221 1.381 2.523 2.143 3.916 1.755 3.206 5.119 5.2 8.773 5.199 3.655-.001 7.02-1.995 8.772-5.202l14.404-26.34 26.34-14.404c3.207-1.754 5.202-5.118 5.202-8.773s-1.995-7.02-5.202-8.773l-26.34-14.404-5.131-9.382c12.399-29.179 36.037-52.445 65.466-64.225l14.732-5.891c15.614-6.247 19.638-26.383 7.836-38.186-15.54-15.539-35.611-26.523-58.039-31.765-3.813-.894-7.792-2.286-11.812-4.102 22.677-22.677 76.258-76.258 91.851-91.85 3.904 3.905 10.235 3.902 14.141-.001l27.528-27.528 3.179 3.179c3.906 3.904 10.235 3.906 14.143 0 3.905-3.905 3.905-10.237 0-14.143l-3.179-3.179 15.857-15.857 3.179 3.179c3.906 3.904 10.235 3.906 14.143 0 3.905-3.905 3.905-10.237 0-14.143l-3.179-3.179 13.179-13.179C511.978 63.665 511.978 57.333 508.072 53.428zM336.398 154.389l21.216 21.216c-6.592 6.592-13.756 13.756-21.238 21.237l-21.215-21.215C320.758 170.031 326.999 163.789 336.398 154.389zM229.961 303.256c-5.49-8.579-12.745-15.804-21.209-21.224 7.812-7.811 14.951-14.949 21.496-21.494l21.216 21.216C242.822 290.395 235.428 297.789 229.961 303.256zM265.606 267.611l-21.216-21.215c8.117-8.116 15.125-15.124 21.239-21.237l21.215 21.215C279.485 253.732 272.331 260.887 265.606 267.611zM300.987 232.231l-21.214-21.214c9.27-9.27 15.808-15.807 21.247-21.247l21.214 21.214C315.219 217.999 308.075 225.143 300.987 232.231zM304.879 420.999l-12.866 7.036c-1.679.917-3.059 2.297-3.976 3.976l-7.039 12.871c-5.081-9.299-6.557-12-6.924-12.671.001.001.001.002.002.003-.129-.235-.102-.186-.108-.198l0 0c-.002-.003-.002-.004 0 0-.918-1.681-2.299-3.062-3.978-3.98l-12.866-7.036 12.866-7.036c1.679-.917 3.059-2.297 3.976-3.976l7.036-12.866 7.036 12.866c.917 1.679 2.297 3.059 3.976 3.976L304.879 420.999zM372.939 294.28c1.707 1.707 1.099 4.585-1.121 5.474l-14.733 5.891c-30.043 12.026-54.914 34.293-70.368 62.456-4.932-3.447-11.648-1.813-14.489 3.381l-14.404 26.34-26.34 14.404c-3.207 1.754-5.202 5.118-5.202 8.773s1.995 7.02 5.202 8.773l26.337 14.403c.749 1.369 1.167 2.136 1.442 2.638-3.759 6.35-8.253 12.173-13.432 17.344-34.051 34.051-92.773 35.496-143.522 4.888l21.01-16.809c4.654-3.725 5.033-10.669.824-14.88l-49.5-49.5c-4.233-4.231-11.172-3.808-14.88.824l-16.809 21.01c-30.607-50.75-29.162-109.471 4.888-143.522 13.399-13.398 31.043-22.188 51.022-25.419 48.39-7.814 89.265-40.294 107.492-85.839l5.89-14.729c.583-1.458 1.777-1.902 2.438-2.038.657-.134 1.927-.197 3.036.916 12.546 12.544 21.917 29.115 26.435 48.461 1.691 7.215 4.654 14.759 8.667 22.156-28.417 28.417-53.632 53.632-63.702 63.702-44.602-11.915-88.118 21.87-88.118 67.62 0 38.598 31.402 70 70 70s70-31.402 70-70c0-6.169-.802-12.239-2.376-18.122 6.626-6.626 56.318-56.317 63.699-63.698 7.397 4.013 14.941 6.975 22.162 8.667C343.285 272.24 360.04 281.38 372.939 294.28zM371.757 161.462l-21.217-21.217c6.487-6.488 14.098-14.099 23.181-23.183l21.218 21.218C393.877 139.343 384.998 148.221 371.757 161.462zM416.151 131.207l-35.358-35.358c8.335-8.335 63.478-63.477 70.708-70.707l35.357 35.357C479.428 67.929 424.188 123.17 416.151 131.207z" fill="#1a535c" class="color000000 svgShape"></path>
      <path d="M274.076 432.214C274.083 432.226 274.081 432.223 274.076 432.214L274.076 432.214zM274.055 432.176c-.009-.017-.02-.037-.031-.057C274.038 432.143 274.047 432.161 274.055 432.176z" fill="#1a535c" class="color000000 svgShape"></path>
    </g>
  </g>
</svg>
