<svg xmlns="http://www.w3.org/2000/svg" viewBox="0 0 340 340" id="playingguitar">
  <path d="M132.974 175.427a15.93 15.93 0 0 1-16.927-2.03 56.365 56.365 0 0 0-25.955-11.325A24 24 0 0 0 68.311 170.1l-4.782 5.424a4 4 0 0 0 6 5.291l4.782-5.424a16.241 16.241 0 0 1 14.534-5.418 48.344 48.344 0 0 1 22.261 9.716 23.953 23.953 0 0 0 25.487 2.872 39.5 39.5 0 0 1 51.246 14.169 4 4 0 0 0 6.748-4.3 48.017 48.017 0 0 0-11.679-12.606 96.337 96.337 0 0 0-16.522-34.122 28.844 28.844 0 0 0-26.134-11.081c-2.5.283-5.181.623-7.977 1.012a4 4 0 0 0 1.1 7.924c2.73-.38 5.345-.711 7.774-.986a20.807 20.807 0 0 1 18.863 7.966 89.3 89.3 0 0 1 12.758 23.476 46.986 46.986 0 0 0-15.842-3.645A47.715 47.715 0 0 0 132.974 175.427zM305.141 47.76a4 4 0 0 0 .513 7.985l11.855-.761a4 4 0 0 0 3.731-3.671l1.628-20.225a4 4 0 0 0-4.147-4.318c-11.912.477-27.161 4.375-27.8 4.54a4 4 0 0 0-3 3.874V52.52l-.477 9.662a15.2 15.2 0 0 0-6.041-1.243c-7.461 0-13.532 5.236-13.532 11.672s6.071 11.671 13.532 11.671c7.354 0 13.344-5.09 13.514-11.4 0-.025.01-.049.011-.075l.988-19.992c0-.034-.006-.065-.005-.1s.01-.065.01-.1V38.337a163.477 163.477 0 0 1 18.6-3.24l-.975 12.124zM281.4 76.282c-3.26 0-5.532-1.935-5.532-3.671s2.272-3.672 5.532-3.672 5.53 1.935 5.53 3.672S284.656 76.282 281.4 76.282zM231.978 144.967c-7.461 0-13.531 5.236-13.531 11.671s6.07 11.671 13.531 11.671c7.28 0 13.219-4.988 13.5-11.208 0-.014 0-.028 0-.042.006-.141.025-.279.025-.421 0-.1-.014-.191-.017-.287 0-.024 0-.047 0-.07l-.014-.158c-.016-.308-.039-.614-.082-.915l-1.268-14.129c3.694-.282 9.5-.688 15.565-.963a4 4 0 1 0-.363-7.993c-6.238.284-12.237.706-15.986.993l-1.431-13.281a74.8 74.8 0 0 1 28.325-.774v16.78c0 .018.005.034.006.052s0 .033 0 .05l.254 9.972a15.236 15.236 0 0 0-5.931-.831 14.747 14.747 0 0 0-9.05 3.663 11.024 11.024 0 0 0-3.78 8.775c.358 6.158 6.22 10.892 13.266 10.892q.456 0 .92-.027a14.747 14.747 0 0 0 9.05-3.662 11.045 11.045 0 0 0 3.78-8.568c0-.026.006-.05 0-.076l-.516-20.284V115.776a4 4 0 0 0-3.008-3.875 80.262 80.262 0 0 0-38.789 1.107 4 4 0 0 0-2.85 4.267l2.213 20.545.7 7.834A15.4 15.4 0 0 0 231.978 144.967zM269.6 158.794a6.837 6.837 0 0 1-4.145 1.607c-3.243.178-5.633-1.611-5.735-3.344a3.151 3.151 0 0 1 1.163-2.38 6.829 6.829 0 0 1 4.146-1.606c.159-.009.315-.014.47-.014 3.011 0 5.169 1.709 5.265 3.357A3.151 3.151 0 0 1 269.6 158.794zm-37.622 1.515c-3.26 0-5.531-1.935-5.531-3.671s2.271-3.671 5.531-3.671c3.115 0 5.3 1.767 5.494 3.439l.027.3C237.444 158.422 235.2 160.309 231.978 160.309z" fill="#1a535c" class="color000000 svgShape"></path>
  <path d="M147.853,188.988a29.046,29.046,0,0,0-24.236,13.057h-19.2a4,4,0,0,0,0,8h15.513a28.829,28.829,0,0,0,.007,15.988H97.511a18.464,18.464,0,0,0-7.723-21.5l-53.119-33.3A180.414,180.414,0,0,1,60.511,149.1a20.389,20.389,0,0,1,14.051-4.068l13.465,1.024a17.733,17.733,0,0,0,7.83,11.323l.113.074a17.835,17.835,0,0,0,27.444-15.026V126.456A35.1,35.1,0,0,0,136.688,109.5h2.7a17.86,17.86,0,0,0,17.84-17.838c0-9.224-7.682-19.541-17.963-19.541h-4.2a13.406,13.406,0,0,1-3.277-.806C108,60.883,103.008,44.686,102.814,44.024a4,4,0,0,0-7.821.584C93.46,56.869,83.026,64.254,82.931,64.321c-.04.027-.08.056-.12.086A79.173,79.173,0,0,0,69.42,76.647a4.878,4.878,0,0,1-3.589,1.725,4.518,4.518,0,0,1-3.494-1.424,34.023,34.023,0,0,1-7.729-13.686,31.923,31.923,0,0,1,1.2-22.011C64.35,21.677,88.044,22.93,89.041,23a4.006,4.006,0,0,0,2.7-.814c11.279-8.624,22.708-10.1,33.971-4.392a34.538,34.538,0,0,1,17.651,22.732c2.13,8.621,2.072,16.064-.173,22.124a4,4,0,1,0,7.5,2.779c2.813-7.591,2.96-16.615.438-26.823a42.525,42.525,0,0,0-21.8-27.946c-9.572-4.854-24.42-7.954-41.29,4.308-6.31-.06-30.032,1.25-39.562,23.087a39.927,39.927,0,0,0-1.524,27.53,42.764,42.764,0,0,0,7.42,14.354,17.843,17.843,0,0,0,6.3,28.076,4,4,0,1,0,3.208-7.328,9.847,9.847,0,0,1-5.9-9.02A9.747,9.747,0,0,1,60.4,85.2a12.674,12.674,0,0,0,5.3,1.169c.121,0,.242,0,.363,0a12.979,12.979,0,0,0,1.924-.218l1.528,15.041a34.619,34.619,0,0,0,18.127,27.115V138l-12.468-.949a28.4,28.4,0,0,0-19.544,5.71,187.924,187.924,0,0,0-28.066,26.74c-1.835,1.911-3.647,3.923-5.386,5.988a21.581,21.581,0,0,0,3.712,31.24,56.442,56.442,0,0,0,14.648,50.221c1.184,1.231,2.42,2.391,3.69,3.5-7.017,6.829-15.259,16.437-20.3,27.676a29.776,29.776,0,0,0,17.847,40.427c7.881,2.572,17.587,3.877,28.846,3.877h76.4a19.622,19.622,0,0,0,15.932-8.07,21.026,21.026,0,0,0,6.905,6.577,19.806,19.806,0,0,0,10.014,2.676,21.3,21.3,0,0,0,15.522-6.774q.346-.372.667-.776a13.671,13.671,0,0,0,.432-16.136c-.265-.4-.53-.776-.795-1.159a30.184,30.184,0,0,0,8.462-9.133,29.226,29.226,0,0,0,3.631-18.825c-.23-1.689-.53-3.4-.892-5.088a4,4,0,0,0-7.823,1.678c.32,1.491.585,3,.788,4.491a21.192,21.192,0,0,1-2.582,13.659,22.382,22.382,0,0,1-6.465,6.868c-4.69-5.474-9.806-9.821-16.572-15.354a22.777,22.777,0,0,0-14.508-5.176,31.493,31.493,0,0,0-14.75,3.793H120.548a21.922,21.922,0,0,1,7.648-5.4,4,4,0,0,0-2.949-7.438c-5.408,2.145-10.015,6.033-15.158,12.838H85.34a4,4,0,1,0,0,8h59.179a56.533,56.533,0,0,1,14,20.016c0,.071,0,.144-.006.214a11.333,11.333,0,0,1-11.5,10.519h-76.4c-10.415,0-19.285-1.172-26.364-3.482A21.776,21.776,0,0,1,31.218,291.4c4.917-10.953,13.56-20.42,19.477-26.078a55.96,55.96,0,0,0,30.543,8.962,56.578,56.578,0,0,0,35.287-12.395,15.21,15.21,0,0,1,16.393-1.681,47.749,47.749,0,0,0,51.417-5.33,90.785,90.785,0,0,0,11.092,7.7,23.876,23.876,0,0,0,29.98-4.627c6.99-7.887,14.273-16.809,19.935-23.925h29.613a14.787,14.787,0,0,0,7.929,3.63l29.355,3.778a4,4,0,0,0,4.511-3.967V198.6a4,4,0,0,0-4.511-3.967l-29.354,3.777a14.8,14.8,0,0,0-7.93,3.631H172.107A29.129,29.129,0,0,0,147.853,188.988Zm1.376-97.324a9.85,9.85,0,0,1-9.84,9.838h-.816c.123-1.1.2-2.222.213-3.354l.051-3.453c.078-5.208.146-9.809.076-14.572h.353C144.294,80.123,149.229,85.839,149.229,91.664ZM77.47,100.383,75.578,81.755A71.3,71.3,0,0,1,87.529,70.868,40.923,40.923,0,0,0,99.937,55.825c4.592,6.869,13.177,16.038,28.633,22.817a15.446,15.446,0,0,0,2.33.8c.089,4.934.019,9.7-.062,15.134l-.051,3.462a26.764,26.764,0,0,1-37.45,24.147c-.086-.041-.172-.08-.262-.114A26.649,26.649,0,0,1,77.47,100.383Zm26.591,32.028a34.321,34.321,0,0,0,11.353-1.934v11.95a9.835,9.835,0,0,1-15.127,8.29l-.114-.073a9.791,9.791,0,0,1-4.535-8.285V131.384A35.027,35.027,0,0,0,104.061,132.411Zm55.778,157.48a14.474,14.474,0,0,1,9.335,3.369c8.983,7.345,14.857,12.432,20.661,21.115a5.776,5.776,0,0,1-.049,6.72c-.081.1-.165.2-.251.293a12.812,12.812,0,0,1-15.65,2.644c-3.65-2.131-6.086-6.02-7.448-11.887-.024-.1-.053-.206-.085-.308-.151-.475-3.42-10.494-13.261-20.925A24.771,24.771,0,0,1,159.839,289.891Zm-11.986-92.9a21.078,21.078,0,0,1,13.666,5.057H134.2A20.947,20.947,0,0,1,147.853,196.988Zm72.29,13.057-3.4,3.994h-81.8a4,4,0,1,0,0,8h33.562a20.874,20.874,0,0,1-1.172,3.994H128.382a20.976,20.976,0,0,1,.006-15.988ZM252,222.039h18.065v2.512a4.046,4.046,0,0,0,.044.592c.045.3.109.595.171.89H250.857A17.154,17.154,0,0,0,252,222.039Zm18.109-11.1a4.046,4.046,0,0,0-.044.592v2.512H251.378a17.182,17.182,0,0,0-1.863-3.994h20.761C270.214,210.34,270.15,210.634,270.105,210.935Zm-63.571,15.1H175.807a29.294,29.294,0,0,0,.823-3.994h33.3ZM28.293,180.646q1.443-1.715,2.948-3.368l54.3,34.036a10.5,10.5,0,0,1,2.842,15.178,10.516,10.516,0,0,1-14.195,2.5L31.255,200.73a13.586,13.586,0,0,1-2.962-20.084Zm108.254,72.438a23.221,23.221,0,0,0-25.029,2.57,48.449,48.449,0,0,1-78.695-39.787c.056-1.432.191-2.86.376-4.281l36.589,24.082a18.508,18.508,0,0,0,22.467-1.635h33.574l.029,0,.032,0h35.684a21.138,21.138,0,0,1-22.223,3.271,4,4,0,0,0-3.235,7.317,29.147,29.147,0,0,0,36.044-10.588h18.366a39.356,39.356,0,0,1-8.539,12.234,3.927,3.927,0,0,0-.735.629c-.055.061-.091.131-.142.2a39.684,39.684,0,0,1-44.563,5.993Zm82.873-.432A15.857,15.857,0,0,1,199.5,255.7a83.626,83.626,0,0,1-9.351-6.407,47.537,47.537,0,0,0,8.989-15.261h9.243c.053,0,.1-.014.153-.016a4.011,4.011,0,0,0,.423-.042c.123-.018.244-.036.363-.065a3.969,3.969,0,0,0,.38-.118c.12-.042.239-.083.353-.136s.23-.12.343-.186.222-.131.327-.207.2-.156.29-.24a3.957,3.957,0,0,0,.3-.29c.035-.039.077-.067.111-.108l9.867-11.591a3.985,3.985,0,0,0,.769-.9l5.768-6.776a9.283,9.283,0,0,1,14.41,11.7C236.388,232.5,227.678,243.335,219.42,252.652Zm64.485-46.3h0l24.844-3.2v29.774l-24.845-3.2a6.863,6.863,0,0,1-5.844-5.509v-12.36A6.863,6.863,0,0,1,283.9,206.35Z" fill="#1a535c" class="color000000 svgShape"></path>
  <path d="M93.916 92.735a4.114 4.114 0 0 0 .78-.07 3.832 3.832 0 0 0 .75-.23 4.579 4.579 0 0 0 .69-.37 3.605 3.605 0 0 0 .61-.5 4 4 0 0 0 0-5.65 4.161 4.161 0 0 0-.61-.5 4.579 4.579 0 0 0-.69-.37 3.832 3.832 0 0 0-.75-.23 4.093 4.093 0 0 0-1.56 0 3.832 3.832 0 0 0-.75.23 4.579 4.579 0 0 0-.69.37 4.161 4.161 0 0 0-.61.5 4 4 0 0 0 2.83 6.82zM113.286 92.735a4 4 0 0 0 2.83-6.82 3.694 3.694 0 0 0-.61-.5 4.143 4.143 0 0 0-.69-.37 3.832 3.832 0 0 0-.75-.23 4.093 4.093 0 0 0-1.56 0 3.832 3.832 0 0 0-.75.23 4.579 4.579 0 0 0-.69.37 4.161 4.161 0 0 0-.61.5 4 4 0 0 0 2.83 6.82z" fill="#1a535c" class="color000000 svgShape"></path>
</svg>
